<?xml version="1.0" encoding="UTF-8" standalone="no"?>
<svg
   xmlns:osb="http://www.openswatchbook.org/uri/2009/osb"
   xmlns:dc="http://purl.org/dc/elements/1.1/"
   xmlns:cc="http://creativecommons.org/ns#"
   xmlns:rdf="http://www.w3.org/1999/02/22-rdf-syntax-ns#"
   xmlns:svg="http://www.w3.org/2000/svg"
   xmlns="http://www.w3.org/2000/svg"
   xmlns:sodipodi="http://sodipodi.sourceforge.net/DTD/sodipodi-0.dtd"
   xmlns:inkscape="http://www.inkscape.org/namespaces/inkscape"
   width="24"
   height="24"
   viewBox="0 0 24 24"
   version="1.1"
   id="svg4"
   sodipodi:docname="iconmonstr-flip-chart-4.svg"
   inkscape:version="0.92.1 15371">
  <metadata
     id="metadata10">
    <rdf:RDF>
      <cc:Work
         rdf:about="">
        <dc:format>image/svg+xml</dc:format>
        <dc:type
           rdf:resource="http://purl.org/dc/dcmitype/StillImage" />
      </cc:Work>
    </rdf:RDF>
  </metadata>
  <defs
     id="defs8">
    <linearGradient
       id="linearGradient4549"
       osb:paint="solid">
      <stop
         style="stop-color:#ed8700;stop-opacity:1;"
         offset="0"
         id="stop4547" />
    </linearGradient>
  </defs>
  <sodipodi:namedview
     pagecolor="#ffffff"
     bordercolor="#666666"
     borderopacity="1"
     objecttolerance="10"
     gridtolerance="10"
     guidetolerance="10"
     inkscape:pageopacity="0"
     inkscape:pageshadow="2"
     inkscape:window-width="1920"
     inkscape:window-height="1016"
     id="namedview6"
     showgrid="false"
     inkscape:zoom="19.666667"
     inkscape:cx="16.43944"
     inkscape:cy="11.094189"
     inkscape:window-x="0"
     inkscape:window-y="27"
     inkscape:window-maximized="1"
     inkscape:current-layer="svg4" />
  <path
     d="M7.496 20h2.633l-3.42 4h-2.627l3.414-4zm9.504-14h-8v1h8v-1zm-6 18h2v-4h-2v4zm2.855-4l3.42 4h2.627l-3.414-4h-2.633zm.145-8h-5v1h5v-1zm3-2h-8v1h8v-1zm0-2h-8v1h8v-1zm6-5h-1v8c0 1.625-5 7-7 7h-13v-15h-1v-3h22v3zm-3 0h-16v13h10.682c2.077 0 1.318-4 1.318-4s4 .825 4-1.229v-7.771zm-12 3h-1v1h1v-1zm0 2h-1v1h1v-1zm0 2h-1v1h1v-1zm0 2h-1v1h1v-1z"
     id="path2"
     style="fill:#2ecc71;fill-opacity:1" />
  <path
     style="fill:#2ecc71;fill-opacity:1;stroke-width:0.10169491"
     d="M 2.0701481,10.482471 2.0440678,2.979661 1.5610169,2.9486653 1.0779661,2.9176696 V 1.4995128 0.08135593 H 12.010169 22.942373 V 1.5050847 2.9288136 h -0.508475 -0.508474 l -0.001,4.1949152 c -10e-4,4.1880162 -0.0014,4.1957512 -0.239598,4.7033902 -0.797084,1.69862 -3.795139,4.787903 -5.592974,5.763163 l -0.624038,0.338532 -6.6857845,0.02823 -6.6857843,0.02823 z m 13.2491589,5.410348 c 0.611344,-0.316138 0.920786,-1.458088 0.812364,-2.997904 l -0.05371,-0.762712 h 1.372881 c 1.524749,0 1.970709,-0.12982 2.383269,-0.69378 0.203894,-0.278719 0.209952,-0.404901 0.209952,-4.3728811 V 2.979661 L 11.984746,2.953625 3.9254237,2.9275888 v 6.5599345 6.5599347 h 5.5474231 c 4.7655542,0 5.5895702,-0.0218 5.8464602,-0.154639 z"
     id="path12"
     inkscape:connector-curvature="0" />
</svg>
